<?xml version="1.0" encoding="utf-8"?>
<!-- Generator: Adobe Illustrator 22.0.1, SVG Export Plug-In . SVG Version: 6.00 Build 0)  -->
<svg version="1.1" xmlns="http://www.w3.org/2000/svg" xmlns:xlink="http://www.w3.org/1999/xlink" x="0px" y="0px"
	 viewBox="0 0 87.4 89.5" enable-background="new 0 0 87.4 89.5" xml:space="preserve">
<g id="Layer_1">
	<g>
		<path fill="#1B4886" d="M47.3,89.5h-7.2c-0.5,0-1-0.2-1.3-0.6c-0.3-0.3-0.4-0.7-0.4-1.1l-1.4-7.4c0-0.2-0.1-0.3-0.3-0.3
			c-2.7-0.5-5.4-1.4-7.9-2.6c-0.1-0.1-0.3,0-0.4,0.1l-5.4,5c-0.6,0.8-1.7,1-2.5,0.4l-5.9-4.3c-0.8-0.6-1-1.7-0.4-2.4l3.1-6.8
			c0.1-0.1,0-0.3-0.1-0.4c-1.9-2-3.5-4.3-4.9-6.7c-0.1-0.1-0.2-0.2-0.4-0.2l-7.4,0.8c-0.3,0.1-0.4,0.1-0.6,0.1
			c-0.8,0-1.4-0.5-1.7-1.2l-2.2-6.9c-0.1-0.4-0.1-0.9,0.1-1.3c0.2-0.4,0.6-0.7,1-0.9l6.6-3.6C7.9,49.2,8,49,8,48.9
			c-0.2-1.4-0.2-2.8-0.2-4.1c0-1.4,0.1-2.8,0.2-4.1c0-0.2-0.1-0.3-0.2-0.4l-6.5-3.6c-0.3-0.1-0.5-0.2-0.7-0.4c0,0-0.1-0.1-0.1-0.1
			c-0.5-0.5-0.7-1.2-0.4-1.8l2.2-6.9c0.2-0.6,0.6-1,1.2-1.1c0.3-0.1,0.7-0.1,1,0l7.4,0.9c0.1,0,0.3-0.1,0.4-0.2
			c1.4-2.4,3-4.6,4.9-6.7c0.1-0.1,0.1-0.3,0.1-0.4l-3.1-6.7c-0.3-0.4-0.4-0.9-0.3-1.4c0.1-0.5,0.3-0.9,0.7-1.1l5.9-4.3
			c0.7-0.5,1.9-0.4,2.4,0.4l5.4,5.1c0.1,0.1,0.3,0.1,0.4,0.1c2.5-1.2,5.2-2,7.9-2.6c0.2,0,0.3-0.1,0.3-0.3l1.4-7.4
			c0-0.5,0.2-0.9,0.4-1.2c0.1-0.1,0.1-0.1,0.2-0.2C39.2,0.2,39.6,0,40.1,0h7.2c0.9,0,1.7,0.7,1.7,1.7l-1,0.4l1-0.2l1.4,7.4
			c0,0.2,0.1,0.3,0.3,0.3c2.7,0.5,5.4,1.4,7.9,2.6c0.1,0.1,0.3,0,0.4-0.1l5.4-5c0.6-0.9,1.7-1,2.5-0.4l5.9,4.3
			c0.4,0.3,0.6,0.7,0.7,1.1c0.1,0.5,0,0.9-0.3,1.3L70.1,20c-0.1,0.1,0,0.3,0.1,0.4c1.9,2,3.5,4.3,4.9,6.7c0.1,0.1,0.2,0.2,0.4,0.2
			l7.4-0.8c0.3-0.1,0.4-0.1,0.6-0.1c0.8,0,1.4,0.5,1.7,1.2l2.2,6.9c0.3,0.9-0.2,1.9-1.1,2.2l-6.6,3.6c-0.1,0.1-0.2,0.2-0.2,0.4
			c0.2,1.4,0.2,2.7,0.2,4.1c0,1.4-0.1,2.8-0.2,4.1c0,0.2,0.1,0.3,0.2,0.4c2.6,1.4,6.4,3.5,7,3.8c0.1,0,0.1,0.1,0.2,0.1
			c0.5,0.5,0.7,1.2,0.5,1.8l0,0c-0.8,2.6-2.1,6.4-2.3,7.1c0,0.1-0.1,0.1-0.1,0.2c-0.3,0.5-0.8,0.8-1.4,0.8c0,0-0.1,0-0.1,0
			c-0.7-0.1-7.2-0.8-7.9-0.9c-0.2,0-0.3,0.1-0.4,0.2c-1.4,2.4-3,4.6-4.9,6.7c-0.1,0.1-0.1,0.3-0.1,0.4l3.1,6.7
			c0.6,0.8,0.4,1.9-0.3,2.5L67,83c-0.4,0.3-0.8,0.3-1,0.3c-0.6,0-1.1-0.3-1.4-0.7l-5.4-5.1c-0.1-0.1-0.3-0.1-0.4-0.1
			c-2.5,1.2-5.2,2-7.9,2.6c-0.2,0-0.3,0.2-0.3,0.3l-1.4,7.4c0,0.2,0,0.3,0,0.4c-0.1,0.3-0.2,0.6-0.4,0.8c0,0-0.1,0.1-0.1,0.1
			C48.2,89.3,47.8,89.5,47.3,89.5z M40.3,87.8L40.3,87.8L40.3,87.8z M40.3,87.5h6.8c0-0.1,0-0.1,0-0.2l1.4-7.4
			c0.2-1,0.9-1.7,1.9-1.9c2.6-0.5,5.1-1.3,7.4-2.4c0.9-0.4,1.9-0.2,2.6,0.4l5.4,5c0,0,0.1,0.1,0.1,0.1l5.5-4c0-0.1-0.1-0.1-0.1-0.2
			l-3.1-6.7c-0.4-0.9-0.2-1.9,0.4-2.6c1.8-1.9,3.3-4,4.6-6.3c0.5-0.8,1.4-1.3,2.4-1.2c3.1,0.4,6.5,0.8,7.6,0.9
			c0.4-1.1,1.4-4.2,2.1-6.5c-1.1-0.6-4.4-2.4-6.7-3.6c-0.9-0.5-1.3-1.4-1.2-2.4c0.1-1.3,0.2-2.6,0.2-3.9c0-1.3-0.1-2.6-0.2-3.9
			c-0.1-1,0.4-1.9,1.2-2.4l6.5-3.6c0.1,0,0.1-0.1,0.2-0.1l-2.1-6.4c-0.1,0-0.2,0-0.2,0l-7.4,0.8c-1,0.1-1.9-0.4-2.3-1.2
			c-1.3-2.3-2.8-4.4-4.6-6.3c-0.7-0.7-0.8-1.7-0.4-2.6l3.1-6.7c0-0.1,0.1-0.1,0.1-0.2l-5.5-4c-0.1,0.1-0.1,0.1-0.2,0.2l-5.4,5
			c-0.7,0.7-1.7,0.8-2.6,0.4c-2.4-1.1-4.9-1.9-7.4-2.4c-0.9-0.2-1.7-0.9-1.9-1.9l-1.4-7.4c0-0.1,0-0.1,0-0.2h-6.8c0,0.1,0,0.1,0,0.2
			l-1.4,7.3c-0.2,1-0.9,1.7-1.9,1.9c-2.6,0.5-5.1,1.3-7.4,2.4c-0.9,0.4-1.9,0.2-2.6-0.4l-5.4-5c-0.1,0-0.1-0.1-0.1-0.1l-5.5,4
			c0,0.1,0.1,0.1,0.1,0.2l3.1,6.7c0.4,0.9,0.2,1.9-0.4,2.6c-1.8,1.9-3.3,4.1-4.6,6.3c-0.5,0.8-1.4,1.3-2.3,1.2l-7.4-0.8
			c-0.1,0-0.1,0-0.2,0l-2.1,6.4c0.1,0,0.1,0.1,0.2,0.1l6.5,3.6c0.8,0.5,1.3,1.4,1.2,2.4c-0.1,1.3-0.2,2.6-0.2,3.9s0.1,2.6,0.2,3.9
			c0.1,1-0.4,1.9-1.2,2.4l-6.5,3.6c-0.1,0-0.1,0.1-0.2,0.1l2.1,6.4c0.1,0,0.2,0,0.2,0l7.4-0.8c1-0.1,1.9,0.4,2.3,1.2
			c1.3,2.3,2.8,4.4,4.6,6.3c0.7,0.7,0.8,1.7,0.4,2.6L16,77.1c0,0.1-0.1,0.1-0.1,0.2l5.5,4c0-0.1,0.1-0.1,0.2-0.2l5.4-5
			c0.7-0.6,1.7-0.8,2.6-0.4c2.4,1.1,4.9,1.9,7.4,2.4c0.9,0.2,1.7,0.9,1.9,1.9l1.4,7.4C40.3,87.4,40.3,87.4,40.3,87.5z M86.4,54.8
			L86.4,54.8L86.4,54.8z M85.4,54.5C85.4,54.5,85.4,54.5,85.4,54.5C85.4,54.5,85.4,54.5,85.4,54.5L85.4,54.5z M2,35.1L2,35.1L2,35.1
			z M85.6,34.7C85.6,34.7,85.6,34.7,85.6,34.7C85.6,34.7,85.6,34.7,85.6,34.7z M65.8,8.1C65.8,8.1,65.8,8.1,65.8,8.1L65.8,8.1z
			 M21.6,8.1L21.6,8.1C21.6,8.1,21.6,8.1,21.6,8.1z M40.3,1.7L40.3,1.7L40.3,1.7z M43.7,68.8c-13.3,0-24.1-10.8-24.1-24.1
			s10.8-24.1,24.1-24.1c13.3,0,24.1,10.8,24.1,24.1S57,68.8,43.7,68.8z M43.7,22.7c-12.2,0-22.1,9.9-22.1,22.1
			c0,12.2,9.9,22.1,22.1,22.1c12.2,0,22.1-9.9,22.1-22.1C65.8,32.6,55.9,22.7,43.7,22.7z M43.7,58c-0.6,0-1-0.4-1-1V45.8H31.5
			c-0.6,0-1-0.4-1-1s0.4-1,1-1h11.2V32.5c0-0.6,0.4-1,1-1s1,0.4,1,1v11.2h11.2c0.6,0,1,0.4,1,1s-0.4,1-1,1H44.7V57
			C44.7,57.5,44.3,58,43.7,58z"/>
	</g>
</g>
<g id="Layer_2">
</g>
</svg>
